<svg width="782" height="244" viewBox="0 0 782 244" fill="none" xmlns="http://www.w3.org/2000/svg">
<path d="M53.6 164L51 112.2L103.8 54H155.2L96 119.2L69.8 146L53.6 164ZM11.4 194V54H57.8V194H11.4ZM103.4 194L62.2 139.6L92.8 107.2L158 194H103.4ZM305.777 82.6C314.043 82.6 321.443 84.3333 327.977 87.8C334.643 91.1333 339.843 96.4 343.577 103.6C347.443 110.8 349.377 120.133 349.377 131.6V194H304.177V139.4C304.177 132.6 303.043 127.8 300.777 125C298.51 122.067 295.577 120.6 291.977 120.6C289.31 120.6 286.91 121.267 284.777 122.6C282.643 123.933 280.91 126.067 279.577 129C278.377 131.8 277.777 135.667 277.777 140.6V194H232.577V139.4C232.577 132.6 231.51 127.8 229.377 125C227.243 122.067 224.243 120.6 220.377 120.6C217.71 120.6 215.31 121.267 213.177 122.6C211.043 123.933 209.31 126.067 207.977 129C206.777 131.8 206.177 135.667 206.177 140.6V194H160.977V84.6H203.977V116L195.177 107.2C199.31 98.9333 204.843 92.8 211.777 88.8C218.71 84.6667 226.443 82.6 234.977 82.6C244.577 82.6 253.043 85.1333 260.377 90.2C267.843 95.1333 272.843 103 275.377 113.8L261.577 111.6C265.577 102.533 271.377 95.4667 278.977 90.4C286.71 85.2 295.643 82.6 305.777 82.6ZM428.738 196C416.338 196 405.338 193.6 395.738 188.8C386.271 183.867 378.804 177.133 373.338 168.6C367.871 160.067 365.138 150.267 365.138 139.2C365.138 128.133 367.871 118.333 373.338 109.8C378.804 101.267 386.271 94.6 395.738 89.8C405.338 85 416.338 82.6 428.738 82.6C441.138 82.6 452.138 85 461.738 89.8C471.338 94.6 478.804 101.267 484.138 109.8C489.604 118.333 492.338 128.133 492.338 139.2C492.338 150.267 489.604 160.067 484.138 168.6C478.804 177.133 471.338 183.867 461.738 188.8C452.138 193.6 441.138 196 428.738 196ZM428.738 160.8C432.071 160.8 435.071 160 437.738 158.4C440.404 156.8 442.538 154.4 444.138 151.2C445.738 147.867 446.538 143.867 446.538 139.2C446.538 134.4 445.738 130.467 444.138 127.4C442.538 124.2 440.404 121.8 437.738 120.2C435.071 118.6 432.071 117.8 428.738 117.8C425.404 117.8 422.404 118.6 419.737 120.2C417.071 121.8 414.938 124.2 413.338 127.4C411.738 130.467 410.938 134.4 410.938 139.2C410.938 143.867 411.738 147.867 413.338 151.2C414.938 154.4 417.071 156.8 419.737 158.4C422.404 160 425.404 160.8 428.738 160.8ZM582.484 82.6C590.884 82.6 598.484 84.3333 605.284 87.8C612.084 91.1333 617.418 96.4 621.284 103.6C625.284 110.8 627.284 120.133 627.284 131.6V194H582.084V139.4C582.084 132.6 580.884 127.8 578.484 125C576.084 122.067 572.818 120.6 568.684 120.6C565.618 120.6 562.751 121.333 560.084 122.8C557.551 124.133 555.484 126.4 553.884 129.6C552.418 132.8 551.684 137.133 551.684 142.6V194H506.484V84.6H549.484V116.6L540.884 107.4C545.151 99.1333 550.884 92.9333 558.084 88.8C565.418 84.6667 573.551 82.6 582.484 82.6ZM704.467 234.8C693.667 234.8 683.534 233.667 674.067 231.4C664.601 229.133 656.467 225.733 649.667 221.2L664.867 190.4C669.134 193.733 674.534 196.333 681.067 198.2C687.734 200.2 694.001 201.2 699.867 201.2C709.201 201.2 715.867 199.2 719.867 195.2C723.867 191.333 725.867 185.733 725.867 178.4V169.2L727.867 135.2L728.067 101.2V84.6H771.067V172.2C771.067 193.4 765.201 209.133 753.467 219.4C741.734 229.667 725.401 234.8 704.467 234.8ZM695.667 188C686.467 188 677.867 185.867 669.867 181.6C661.867 177.2 655.401 171.067 650.467 163.2C645.534 155.333 643.067 146 643.067 135.2C643.067 124.4 645.534 115.067 650.467 107.2C655.401 99.3333 661.867 93.2667 669.867 89C677.867 84.7333 686.467 82.6 695.667 82.6C705.134 82.6 712.867 84.4667 718.867 88.2C725.001 91.9333 729.534 97.7333 732.467 105.6C735.401 113.333 736.867 123.2 736.867 135.2C736.867 147.2 735.401 157.133 732.467 165C729.534 172.733 725.001 178.533 718.867 182.4C712.867 186.133 705.134 188 695.667 188ZM707.667 152.8C711.267 152.8 714.467 152.067 717.267 150.6C720.067 149.133 722.267 147.067 723.867 144.4C725.467 141.733 726.267 138.667 726.267 135.2C726.267 131.6 725.467 128.533 723.867 126C722.267 123.333 720.067 121.333 717.267 120C714.467 118.533 711.267 117.8 707.667 117.8C704.201 117.8 701.001 118.533 698.067 120C695.267 121.333 693.001 123.333 691.267 126C689.667 128.533 688.867 131.6 688.867 135.2C688.867 138.667 689.667 141.733 691.267 144.4C693.001 147.067 695.267 149.133 698.067 150.6C701.001 152.067 704.201 152.8 707.667 152.8Z" fill="black"/>
</svg>
