<svg xmlns="http://www.w3.org/2000/svg" width="43" height="16" viewBox="0 0 43 16">
    <g fill="#116AD4" fill-rule="evenodd">
        <rect width="43" height="16" fill-opacity=".2" rx="1"/>
        <path fill-rule="nonzero" d="M6.046 10.75V7.218l1.755 3.202 1.755-3.202v3.532h1.215V5.08H9.556L7.801 8.283 6.046 5.08H4.831v5.67h1.215zm6.803 0l.36-.893h2.527l.36.893h1.373l-2.31-5.67h-1.365l-2.31 5.67h1.365zm2.467-1.92H13.63l.847-2.07.84 2.07zm4.965 2.018c1.388 0 2.205-.72 2.205-1.8 0-1.043-.81-1.41-2.032-1.68-.878-.196-1.215-.33-1.215-.743 0-.338.315-.607.832-.607.548 0 1.118.217 1.62.622l.638-.87c-.578-.495-1.298-.787-2.22-.787-1.238 0-2.1.72-2.1 1.762 0 1.103.855 1.433 2.047 1.71.87.203 1.2.322 1.2.727 0 .353-.315.638-.93.638-.712 0-1.327-.285-1.86-.742l-.705.832c.66.607 1.538.938 2.52.938zm5.588-.098V6.183h1.77V5.08h-4.755v1.103h1.77v4.567h1.215zm6.952 0V9.655H29.68V8.41h2.842V7.307H29.68V6.183h3.142V5.08h-4.365v5.67h4.365zm2.138 0V8.912h.892l1.298 1.838h1.387l-1.395-1.98c.773-.27 1.29-.93 1.29-1.777 0-1.118-.907-1.913-2.137-1.913h-2.55v5.67h1.215zm1.2-2.955h-1.2V6.197h1.2c.6 0 1.012.316 1.012.795 0 .488-.412.803-1.012.803z"/>
    </g>
</svg>
